<svg width="479" height="338" viewBox="0 0 479 338" fill="none" xmlns="http://www.w3.org/2000/svg">
<rect x="32" width="411" height="131" rx="10" fill="#B5B5B5"/>
<rect x="17" y="13" width="445" height="131" rx="10" fill="#6C6C6C"/>
<rect y="27" width="479" height="311" rx="10" fill="#1F1F1F"/>
<line x1="18" y1="39" x2="18" y2="245.375" stroke="white" stroke-width="2"/>
<line x1="88.5" y1="39" x2="88.5" y2="245.375" stroke="white" stroke-opacity="0.5"/>
<line x1="462" y1="204.438" x2="17" y2="204.438" stroke="white" stroke-opacity="0.5"/>
<line x1="462" y1="163" x2="17" y2="163" stroke="white" stroke-opacity="0.5"/>
<line x1="462" y1="121.562" x2="17" y2="121.562" stroke="white" stroke-opacity="0.5"/>
<line x1="462" y1="80.125" x2="17" y2="80.125" stroke="white" stroke-opacity="0.5"/>
<line x1="462" y1="39.5" x2="17" y2="39.5" stroke="white"/>
<line x1="462.5" y1="39" x2="462.5" y2="247" stroke="white"/>
<line x1="159.5" y1="39" x2="159.5" y2="245.375" stroke="white" stroke-opacity="0.5"/>
<line x1="230.5" y1="39" x2="230.5" y2="245.375" stroke="white" stroke-opacity="0.5"/>
<line x1="301.5" y1="39" x2="301.5" y2="245.375" stroke="white" stroke-opacity="0.5"/>
<line x1="372.5" y1="39" x2="372.5" y2="245.375" stroke="white" stroke-opacity="0.5"/>
<line x1="443.5" y1="39" x2="443.5" y2="245.375" stroke="white" stroke-opacity="0.5"/>
<line x1="462" y1="246.375" x2="17" y2="246.375" stroke="white" stroke-width="2"/>
<circle cx="47.5" cy="223.5" r="5.5" fill="#5DEEF9"/>
<circle cx="100.5" cy="197.5" r="5.5" fill="#5DEEF9"/>
<circle cx="123.5" cy="145.5" r="5.5" fill="#5DEEF9"/>
<circle cx="168.5" cy="168.5" r="5.5" fill="#5DEEF9"/>
<circle cx="226.5" cy="99.5" r="5.5" fill="#5DEEF9"/>
<circle cx="283.5" cy="126.5" r="5.5" fill="#5DEEF9"/>
<circle cx="313.5" cy="64.5" r="5.5" fill="#5DEEF9"/>
<circle cx="351.5" cy="153.5" r="5.5" fill="#5DEEF9"/>
<circle cx="402.5" cy="223.5" r="5.5" fill="#5DEEF9"/>
<path d="M22.5176 264.723C24.2168 264.723 25.4896 265.048 26.3359 265.699C27.1823 266.35 27.6055 267.363 27.6055 268.736C27.6055 269.439 27.4915 270.064 27.2637 270.611C27.0423 271.152 26.707 271.607 26.2578 271.979C25.8086 272.35 25.2454 272.63 24.5684 272.818C23.8978 273.007 23.1133 273.102 22.2148 273.102H20.0176V279H19.0117V264.723H22.5176ZM22.4102 265.611H20.0176V272.213H22.1172C23.0417 272.213 23.8359 272.109 24.5 271.9C25.1641 271.686 25.6751 271.327 26.0332 270.826C26.3913 270.325 26.5703 269.641 26.5703 268.775C26.5703 267.675 26.2318 266.874 25.5547 266.373C24.8776 265.865 23.8294 265.611 22.4102 265.611ZM34.6855 268.199C34.9655 268.199 35.2292 268.215 35.4766 268.248C35.724 268.281 35.9551 268.326 36.1699 268.385L36.0137 269.293C35.7988 269.234 35.5807 269.192 35.3594 269.166C35.138 269.133 34.9004 269.117 34.6465 269.117C34.1452 269.117 33.696 269.212 33.2988 269.4C32.9082 269.589 32.5762 269.859 32.3027 270.211C32.0293 270.562 31.821 270.986 31.6777 271.48C31.5345 271.975 31.4629 272.529 31.4629 273.141V279H30.4668V268.385H31.3164L31.4141 270.387H31.4727C31.6354 269.977 31.8633 269.609 32.1562 269.283C32.4557 268.951 32.8171 268.688 33.2402 268.492C33.6634 268.297 34.1452 268.199 34.6855 268.199ZM42.2734 268.18C43.1784 268.18 43.9303 268.391 44.5293 268.814C45.1348 269.238 45.584 269.817 45.877 270.553C46.1764 271.288 46.3262 272.132 46.3262 273.082V273.795H38.6602C38.6602 275.253 38.9954 276.373 39.666 277.154C40.3431 277.936 41.3099 278.326 42.5664 278.326C43.224 278.326 43.7936 278.274 44.2754 278.17C44.7637 278.059 45.304 277.874 45.8965 277.613V278.521C45.3757 278.756 44.8548 278.925 44.334 279.029C43.8132 279.14 43.2142 279.195 42.5371 279.195C41.4629 279.195 40.5612 278.974 39.832 278.531C39.1094 278.082 38.5625 277.451 38.1914 276.637C37.8268 275.823 37.6445 274.872 37.6445 273.785C37.6445 272.724 37.8203 271.77 38.1719 270.924C38.5299 270.077 39.0508 269.41 39.7344 268.922C40.4245 268.427 41.2708 268.18 42.2734 268.18ZM42.2637 269.029C41.248 269.029 40.4245 269.368 39.793 270.045C39.168 270.715 38.8001 271.686 38.6895 272.955H45.3008C45.3008 272.18 45.1901 271.497 44.9688 270.904C44.7474 270.312 44.4121 269.853 43.9629 269.527C43.5202 269.195 42.9538 269.029 42.2637 269.029ZM51.5605 279L47.4883 268.385H48.5332L51.2578 275.621C51.4271 276.057 51.5768 276.477 51.707 276.881C51.8438 277.278 51.9577 277.639 52.0488 277.965H52.0977C52.2018 277.639 52.319 277.275 52.4492 276.871C52.5859 276.467 52.7357 276.051 52.8984 275.621L55.623 268.385H56.6777L52.5957 279H51.5605ZM59.4316 268.385V279H58.4453V268.385H59.4316ZM58.9531 264.459C59.2005 264.459 59.3828 264.534 59.5 264.684C59.6172 264.827 59.6758 265.022 59.6758 265.27C59.6758 265.517 59.6172 265.712 59.5 265.855C59.3828 265.999 59.2005 266.07 58.9531 266.07C58.7188 266.07 58.543 265.999 58.4258 265.855C58.3086 265.712 58.25 265.517 58.25 265.27C58.25 265.022 58.3086 264.827 58.4258 264.684C58.543 264.534 58.7188 264.459 58.9531 264.459ZM71.7852 273.678C71.7852 274.498 71.6842 275.247 71.4824 275.924C71.2806 276.594 70.9811 277.174 70.584 277.662C70.1868 278.15 69.6921 278.528 69.0996 278.795C68.5137 279.062 67.8301 279.195 67.0488 279.195C66.3066 279.195 65.6458 279.065 65.0664 278.805C64.487 278.538 63.9954 278.16 63.5918 277.672C63.1947 277.184 62.8919 276.604 62.6836 275.934C62.4753 275.257 62.3711 274.505 62.3711 273.678C62.3711 272.538 62.5599 271.559 62.9375 270.738C63.3216 269.911 63.8685 269.28 64.5781 268.844C65.2943 268.401 66.1504 268.18 67.1465 268.18C68.1751 268.18 69.0312 268.414 69.7148 268.883C70.4049 269.345 70.9225 269.99 71.2676 270.816C71.6126 271.643 71.7852 272.597 71.7852 273.678ZM63.3867 273.678C63.3867 274.609 63.5202 275.423 63.7871 276.119C64.054 276.816 64.4577 277.359 64.998 277.75C65.5449 278.141 66.235 278.336 67.0684 278.336C67.9212 278.336 68.6211 278.141 69.168 277.75C69.7148 277.359 70.1185 276.812 70.3789 276.109C70.6393 275.406 70.7695 274.596 70.7695 273.678C70.7695 272.786 70.6458 271.992 70.3984 271.295C70.151 270.598 69.7604 270.051 69.2266 269.654C68.6927 269.251 67.9961 269.049 67.1367 269.049C65.9062 269.049 64.972 269.459 64.334 270.279C63.7025 271.1 63.3867 272.232 63.3867 273.678ZM82.9668 268.385V279H82.166L82.0195 277.086H81.9609C81.7786 277.477 81.5215 277.831 81.1895 278.15C80.8574 278.469 80.4505 278.723 79.9688 278.912C79.487 279.101 78.9271 279.195 78.2891 279.195C77.4753 279.195 76.7917 279.055 76.2383 278.775C75.6914 278.489 75.278 278.059 74.998 277.486C74.7181 276.913 74.5781 276.197 74.5781 275.338V268.385H75.5645V275.24C75.5645 276.301 75.8021 277.083 76.2773 277.584C76.7591 278.085 77.4622 278.336 78.3867 278.336C79.168 278.336 79.8223 278.186 80.3496 277.887C80.8835 277.587 81.2871 277.135 81.5605 276.529C81.8405 275.917 81.9805 275.156 81.9805 274.244V268.385H82.9668ZM93.1719 276.217C93.1719 276.848 93.0124 277.389 92.6934 277.838C92.3809 278.281 91.9219 278.619 91.3164 278.854C90.7109 279.081 89.9655 279.195 89.0801 279.195C88.3444 279.195 87.6868 279.13 87.1074 279C86.528 278.87 86.043 278.71 85.6523 278.521V277.545C86.1406 277.786 86.681 277.981 87.2734 278.131C87.8659 278.281 88.4746 278.355 89.0996 278.355C90.1934 278.355 90.9811 278.17 91.4629 277.799C91.9447 277.428 92.1855 276.92 92.1855 276.275C92.1855 275.852 92.0651 275.504 91.8242 275.23C91.5898 274.951 91.2513 274.71 90.8086 274.508C90.3659 274.306 89.832 274.101 89.207 273.893C88.556 273.671 87.9766 273.453 87.4688 273.238C86.9674 273.017 86.5736 272.727 86.2871 272.369C86.0007 272.005 85.8574 271.51 85.8574 270.885C85.8574 270.032 86.1992 269.368 86.8828 268.893C87.5664 268.417 88.4844 268.18 89.6367 268.18C90.2747 268.18 90.8672 268.242 91.4141 268.365C91.9674 268.482 92.4688 268.635 92.918 268.824L92.5664 269.664C92.1628 269.475 91.6973 269.322 91.1699 269.205C90.6426 269.088 90.1152 269.029 89.5879 269.029C88.722 269.029 88.0449 269.182 87.5566 269.488C87.0684 269.794 86.8242 270.243 86.8242 270.836C86.8242 271.292 86.9414 271.65 87.1758 271.91C87.4102 272.164 87.7454 272.379 88.1816 272.555C88.6178 272.724 89.1354 272.913 89.7344 273.121C90.3529 273.336 90.9225 273.561 91.4434 273.795C91.9707 274.029 92.3906 274.332 92.7031 274.703C93.0156 275.074 93.1719 275.579 93.1719 276.217ZM107.361 265.426C106.45 265.426 105.636 265.582 104.92 265.895C104.204 266.201 103.598 266.637 103.104 267.203C102.609 267.77 102.231 268.447 101.971 269.234C101.71 270.016 101.58 270.878 101.58 271.822C101.58 273.124 101.785 274.264 102.195 275.24C102.605 276.21 103.221 276.962 104.041 277.496C104.868 278.03 105.896 278.297 107.127 278.297C107.843 278.297 108.494 278.245 109.08 278.141C109.666 278.03 110.21 277.89 110.711 277.721V278.6C110.236 278.775 109.699 278.919 109.1 279.029C108.507 279.14 107.817 279.195 107.029 279.195C105.604 279.195 104.406 278.889 103.436 278.277C102.472 277.665 101.746 276.806 101.258 275.699C100.77 274.592 100.525 273.3 100.525 271.822C100.525 270.761 100.678 269.788 100.984 268.902C101.29 268.01 101.736 267.239 102.322 266.588C102.915 265.93 103.634 265.423 104.48 265.064C105.327 264.7 106.29 264.518 107.371 264.518C108.055 264.518 108.706 264.586 109.324 264.723C109.949 264.853 110.535 265.045 111.082 265.299L110.691 266.178C110.164 265.917 109.624 265.729 109.07 265.611C108.517 265.488 107.947 265.426 107.361 265.426ZM117.176 268.199C118.341 268.199 119.214 268.492 119.793 269.078C120.372 269.664 120.662 270.598 120.662 271.881V279H119.9L119.725 277.145H119.666C119.438 277.542 119.161 277.896 118.836 278.209C118.51 278.515 118.11 278.756 117.635 278.932C117.166 279.107 116.593 279.195 115.916 279.195C115.232 279.195 114.646 279.081 114.158 278.854C113.676 278.626 113.302 278.294 113.035 277.857C112.775 277.421 112.645 276.891 112.645 276.266C112.645 275.211 113.081 274.41 113.953 273.863C114.826 273.31 116.079 272.997 117.713 272.926L119.686 272.828V272.057C119.686 270.969 119.471 270.195 119.041 269.732C118.611 269.27 117.977 269.039 117.137 269.039C116.59 269.039 116.062 269.111 115.555 269.254C115.053 269.391 114.542 269.589 114.021 269.85L113.709 269.029C114.217 268.788 114.76 268.59 115.34 268.434C115.926 268.277 116.538 268.199 117.176 268.199ZM119.676 273.6L117.82 273.678C116.473 273.743 115.447 273.984 114.744 274.4C114.041 274.817 113.689 275.442 113.689 276.275C113.689 276.946 113.898 277.46 114.314 277.818C114.738 278.176 115.324 278.355 116.072 278.355C117.238 278.355 118.126 278.023 118.738 277.359C119.357 276.695 119.669 275.79 119.676 274.645V273.6ZM128.777 268.18C130.145 268.18 131.202 268.639 131.951 269.557C132.706 270.475 133.084 271.829 133.084 273.619C133.084 274.817 132.905 275.833 132.547 276.666C132.189 277.493 131.678 278.121 131.014 278.551C130.356 278.98 129.565 279.195 128.641 279.195C128.003 279.195 127.446 279.101 126.971 278.912C126.502 278.717 126.111 278.456 125.799 278.131C125.486 277.799 125.245 277.434 125.076 277.037H125.008C125.027 277.408 125.044 277.796 125.057 278.199C125.07 278.603 125.076 278.984 125.076 279.342V283.697H124.08V268.385H124.9L125.018 270.504H125.076C125.252 270.1 125.499 269.719 125.818 269.361C126.137 269.003 126.541 268.717 127.029 268.502C127.518 268.287 128.1 268.18 128.777 268.18ZM128.65 269.049C127.85 269.049 127.182 269.225 126.648 269.576C126.121 269.921 125.727 270.429 125.467 271.1C125.213 271.764 125.083 272.577 125.076 273.541V273.707C125.076 274.742 125.203 275.605 125.457 276.295C125.717 276.979 126.105 277.49 126.619 277.828C127.14 278.167 127.785 278.336 128.553 278.336C129.308 278.336 129.946 278.15 130.467 277.779C130.988 277.408 131.385 276.871 131.658 276.168C131.932 275.465 132.068 274.612 132.068 273.609C132.068 272.118 131.782 270.986 131.209 270.211C130.643 269.436 129.79 269.049 128.65 269.049ZM138.855 278.346C139.161 278.346 139.445 278.323 139.705 278.277C139.972 278.232 140.206 278.173 140.408 278.102V278.922C140.2 278.993 139.956 279.055 139.676 279.107C139.396 279.166 139.087 279.195 138.748 279.195C138.149 279.195 137.651 279.085 137.254 278.863C136.857 278.635 136.557 278.294 136.355 277.838C136.154 277.376 136.053 276.79 136.053 276.08V269.205H134.471V268.619L136.043 268.316L136.385 265.816H137.039V268.385H140.35V269.205H137.039V276.021C137.039 276.783 137.179 277.363 137.459 277.76C137.745 278.15 138.211 278.346 138.855 278.346ZM150.936 268.385V279H150.135L149.988 277.086H149.93C149.747 277.477 149.49 277.831 149.158 278.15C148.826 278.469 148.419 278.723 147.938 278.912C147.456 279.101 146.896 279.195 146.258 279.195C145.444 279.195 144.76 279.055 144.207 278.775C143.66 278.489 143.247 278.059 142.967 277.486C142.687 276.913 142.547 276.197 142.547 275.338V268.385H143.533V275.24C143.533 276.301 143.771 277.083 144.246 277.584C144.728 278.085 145.431 278.336 146.355 278.336C147.137 278.336 147.791 278.186 148.318 277.887C148.852 277.587 149.256 277.135 149.529 276.529C149.809 275.917 149.949 275.156 149.949 274.244V268.385H150.936ZM158.729 268.199C159.008 268.199 159.272 268.215 159.52 268.248C159.767 268.281 159.998 268.326 160.213 268.385L160.057 269.293C159.842 269.234 159.624 269.192 159.402 269.166C159.181 269.133 158.943 269.117 158.689 269.117C158.188 269.117 157.739 269.212 157.342 269.4C156.951 269.589 156.619 269.859 156.346 270.211C156.072 270.562 155.864 270.986 155.721 271.48C155.577 271.975 155.506 272.529 155.506 273.141V279H154.51V268.385H155.359L155.457 270.387H155.516C155.678 269.977 155.906 269.609 156.199 269.283C156.499 268.951 156.86 268.688 157.283 268.492C157.706 268.297 158.188 268.199 158.729 268.199ZM166.316 268.18C167.221 268.18 167.973 268.391 168.572 268.814C169.178 269.238 169.627 269.817 169.92 270.553C170.219 271.288 170.369 272.132 170.369 273.082V273.795H162.703C162.703 275.253 163.038 276.373 163.709 277.154C164.386 277.936 165.353 278.326 166.609 278.326C167.267 278.326 167.837 278.274 168.318 278.17C168.807 278.059 169.347 277.874 169.939 277.613V278.521C169.419 278.756 168.898 278.925 168.377 279.029C167.856 279.14 167.257 279.195 166.58 279.195C165.506 279.195 164.604 278.974 163.875 278.531C163.152 278.082 162.605 277.451 162.234 276.637C161.87 275.823 161.688 274.872 161.688 273.785C161.688 272.724 161.863 271.77 162.215 270.924C162.573 270.077 163.094 269.41 163.777 268.922C164.467 268.427 165.314 268.18 166.316 268.18ZM166.307 269.029C165.291 269.029 164.467 269.368 163.836 270.045C163.211 270.715 162.843 271.686 162.732 272.955H169.344C169.344 272.18 169.233 271.497 169.012 270.904C168.79 270.312 168.455 269.853 168.006 269.527C167.563 269.195 166.997 269.029 166.307 269.029Z" fill="white"/>
<path d="M415.455 314.268H413.609V317H412.884V314.268H407.449V313.682L412.833 306.233H413.609V313.587H415.455V314.268ZM412.884 313.587V309.471C412.884 309.168 412.884 308.907 412.884 308.687C412.889 308.467 412.894 308.27 412.898 308.094C412.903 307.913 412.908 307.74 412.913 307.574C412.918 307.408 412.923 307.237 412.928 307.061H412.884C412.747 307.295 412.618 307.513 412.496 307.713C412.378 307.908 412.227 308.13 412.042 308.379L408.262 313.587H412.884ZM416.868 316.48C416.868 316.265 416.917 316.102 417.015 315.989C417.112 315.872 417.256 315.813 417.447 315.813C417.657 315.813 417.811 315.872 417.908 315.989C418.006 316.102 418.055 316.265 418.055 316.48C418.055 316.695 418.006 316.861 417.908 316.978C417.811 317.095 417.657 317.154 417.447 317.154C417.256 317.154 417.112 317.095 417.015 316.978C416.917 316.861 416.868 316.695 416.868 316.48ZM416.868 309.595C416.868 309.375 416.917 309.209 417.015 309.097C417.112 308.98 417.256 308.921 417.447 308.921C417.657 308.921 417.811 308.98 417.908 309.097C418.006 309.209 418.055 309.375 418.055 309.595C418.055 309.805 418.006 309.969 417.908 310.086C417.811 310.203 417.657 310.262 417.447 310.262C417.256 310.262 417.112 310.203 417.015 310.086C416.917 309.969 416.868 309.805 416.868 309.595ZM424.236 317H423.511V308.914C423.511 308.626 423.511 308.375 423.511 308.16C423.511 307.94 423.514 307.745 423.519 307.574C423.523 307.398 423.531 307.232 423.541 307.076C423.409 307.208 423.282 307.322 423.16 307.42C423.038 307.518 422.881 307.642 422.691 307.793L421.109 308.995L420.699 308.467L423.614 306.292H424.236V317ZM432.073 306.138C432.679 306.138 433.208 306.236 433.663 306.431C434.122 306.626 434.478 306.91 434.732 307.281C434.986 307.652 435.113 308.101 435.113 308.628C435.113 309.063 435.013 309.444 434.812 309.771C434.617 310.098 434.346 310.386 434 310.635C433.653 310.879 433.25 311.099 432.791 311.294C433.328 311.5 433.797 311.736 434.197 312.005C434.598 312.273 434.908 312.591 435.127 312.957C435.352 313.323 435.464 313.758 435.464 314.261C435.464 314.866 435.315 315.386 435.018 315.821C434.72 316.25 434.314 316.58 433.802 316.81C433.289 317.034 432.703 317.146 432.044 317.146C431.36 317.146 430.767 317.032 430.264 316.802C429.761 316.573 429.371 316.248 429.092 315.828C428.819 315.403 428.682 314.908 428.682 314.341C428.682 313.814 428.792 313.362 429.012 312.986C429.236 312.605 429.544 312.281 429.935 312.012C430.325 311.744 430.77 311.517 431.268 311.331C430.857 311.15 430.481 310.943 430.14 310.708C429.803 310.474 429.532 310.191 429.327 309.859C429.126 309.522 429.026 309.117 429.026 308.643C429.026 308.121 429.156 307.674 429.415 307.303C429.678 306.932 430.04 306.646 430.499 306.446C430.958 306.241 431.482 306.138 432.073 306.138ZM429.422 314.341C429.422 315 429.654 315.528 430.118 315.923C430.582 316.319 431.219 316.517 432.029 316.517C432.84 316.517 433.492 316.321 433.985 315.931C434.478 315.54 434.725 314.986 434.725 314.268C434.725 313.868 434.629 313.516 434.439 313.213C434.253 312.911 433.98 312.645 433.619 312.415C433.262 312.181 432.828 311.971 432.315 311.785L431.963 311.653C431.465 311.834 431.026 312.044 430.645 312.283C430.264 312.518 429.964 312.801 429.744 313.133C429.529 313.465 429.422 313.868 429.422 314.341ZM432.066 306.775C431.397 306.775 430.845 306.939 430.411 307.266C429.981 307.593 429.766 308.06 429.766 308.665C429.766 309.07 429.866 309.415 430.066 309.698C430.267 309.981 430.542 310.225 430.894 310.43C431.25 310.63 431.658 310.816 432.117 310.987C432.596 310.792 433.001 310.586 433.333 310.372C433.67 310.157 433.926 309.91 434.102 309.632C434.278 309.354 434.366 309.024 434.366 308.643C434.366 308.028 434.161 307.564 433.75 307.251C433.34 306.934 432.779 306.775 432.066 306.775ZM444.415 306.292C445.689 306.292 446.644 306.536 447.278 307.024C447.913 307.513 448.23 308.272 448.23 309.302C448.23 309.83 448.145 310.298 447.974 310.708C447.808 311.114 447.557 311.456 447.22 311.734C446.883 312.012 446.46 312.222 445.953 312.364C445.45 312.505 444.861 312.576 444.188 312.576H442.54V317H441.785V306.292H444.415ZM444.334 306.958H442.54V311.91H444.114C444.808 311.91 445.403 311.832 445.901 311.675C446.399 311.514 446.783 311.246 447.051 310.87C447.32 310.494 447.454 309.981 447.454 309.332C447.454 308.506 447.2 307.906 446.692 307.53C446.185 307.149 445.398 306.958 444.334 306.958ZM455.196 317L451.263 307.112H451.226C451.236 307.293 451.243 307.483 451.248 307.684C451.258 307.879 451.265 308.084 451.27 308.299C451.275 308.514 451.277 308.738 451.277 308.973V317H450.56V306.292H451.702L455.496 315.828H455.54L459.363 306.292H460.477V317H459.737V308.885C459.737 308.694 459.739 308.499 459.744 308.299C459.749 308.099 459.754 307.901 459.759 307.706C459.769 307.505 459.778 307.312 459.788 307.127H459.744L455.796 317H455.196Z" fill="#CBCBCB"/>
<path d="M23.5073 306.151C23.5073 306.786 23.3486 307.328 23.0312 307.777C22.7188 308.221 22.2793 308.561 21.7129 308.795C21.1465 309.029 20.48 309.146 19.7134 309.146C19.3081 309.146 18.9248 309.127 18.5635 309.088C18.2021 309.049 17.8701 308.993 17.5674 308.919C17.2646 308.846 16.9985 308.756 16.769 308.648V307.455C17.1353 307.606 17.582 307.748 18.1094 307.879C18.6367 308.006 19.1885 308.07 19.7646 308.07C20.3018 308.07 20.7559 307.999 21.127 307.857C21.498 307.711 21.7788 307.503 21.9692 307.235C22.1646 306.961 22.2622 306.634 22.2622 306.253C22.2622 305.887 22.1816 305.582 22.0205 305.338C21.8594 305.089 21.5908 304.864 21.2148 304.664C20.8438 304.459 20.3359 304.242 19.6914 304.012C19.2373 303.851 18.8369 303.675 18.4902 303.485C18.1436 303.29 17.853 303.07 17.6187 302.826C17.3843 302.582 17.2061 302.298 17.084 301.976C16.9668 301.654 16.9082 301.285 16.9082 300.87C16.9082 300.299 17.0522 299.811 17.3403 299.405C17.6333 298.995 18.0361 298.683 18.5488 298.468C19.0664 298.248 19.6597 298.138 20.3286 298.138C20.8999 298.138 21.4272 298.192 21.9106 298.299C22.3989 298.407 22.8457 298.551 23.251 298.731L22.8628 299.801C22.4771 299.64 22.0669 299.505 21.6323 299.398C21.2026 299.291 20.7583 299.237 20.2993 299.237C19.8403 299.237 19.4521 299.305 19.1348 299.442C18.8223 299.574 18.583 299.762 18.417 300.006C18.251 300.25 18.168 300.541 18.168 300.877C18.168 301.253 18.2461 301.566 18.4023 301.815C18.5635 302.064 18.8174 302.286 19.1641 302.481C19.5156 302.672 19.9795 302.872 20.5557 303.082C21.1855 303.312 21.7202 303.556 22.1597 303.814C22.5991 304.068 22.9336 304.381 23.1631 304.752C23.3926 305.118 23.5073 305.584 23.5073 306.151ZM28.605 300.826C29.2886 300.826 29.8745 300.978 30.3628 301.28C30.8511 301.583 31.2246 302.008 31.4834 302.555C31.7422 303.097 31.8716 303.731 31.8716 304.459V305.213H26.3271C26.3418 306.156 26.5762 306.874 27.0303 307.367C27.4844 307.86 28.124 308.106 28.9492 308.106C29.457 308.106 29.9062 308.06 30.2969 307.967C30.6875 307.875 31.0928 307.738 31.5127 307.557V308.626C31.1074 308.807 30.7046 308.939 30.3042 309.022C29.9087 309.105 29.4399 309.146 28.8979 309.146C28.1265 309.146 27.4526 308.99 26.8765 308.678C26.3052 308.36 25.8608 307.896 25.5435 307.286C25.2261 306.676 25.0674 305.929 25.0674 305.045C25.0674 304.181 25.2114 303.434 25.4995 302.804C25.7925 302.169 26.2026 301.681 26.73 301.339C27.2622 300.997 27.8872 300.826 28.605 300.826ZM28.5903 301.822C27.9409 301.822 27.4233 302.035 27.0376 302.459C26.6519 302.884 26.4224 303.478 26.3491 304.239H30.5972C30.5923 303.761 30.5166 303.341 30.3701 302.979C30.2285 302.613 30.0112 302.33 29.7183 302.13C29.4253 301.925 29.0493 301.822 28.5903 301.822ZM37.0278 300.826C37.7114 300.826 38.2974 300.978 38.7856 301.28C39.2739 301.583 39.6475 302.008 39.9062 302.555C40.165 303.097 40.2944 303.731 40.2944 304.459V305.213H34.75C34.7646 306.156 34.999 306.874 35.4531 307.367C35.9072 307.86 36.5469 308.106 37.3721 308.106C37.8799 308.106 38.3291 308.06 38.7197 307.967C39.1104 307.875 39.5156 307.738 39.9355 307.557V308.626C39.5303 308.807 39.1274 308.939 38.7271 309.022C38.3315 309.105 37.8628 309.146 37.3208 309.146C36.5493 309.146 35.8755 308.99 35.2993 308.678C34.728 308.36 34.2837 307.896 33.9663 307.286C33.6489 306.676 33.4902 305.929 33.4902 305.045C33.4902 304.181 33.6343 303.434 33.9224 302.804C34.2153 302.169 34.6255 301.681 35.1528 301.339C35.6851 300.997 36.3101 300.826 37.0278 300.826ZM37.0132 301.822C36.3638 301.822 35.8462 302.035 35.4604 302.459C35.0747 302.884 34.8452 303.478 34.772 304.239H39.02C39.0151 303.761 38.9395 303.341 38.793 302.979C38.6514 302.613 38.4341 302.33 38.1411 302.13C37.8481 301.925 37.4722 301.822 37.0132 301.822ZM51.1489 309L47.5527 299.522H47.4941C47.5137 299.723 47.5308 299.967 47.5454 300.255C47.5601 300.543 47.5723 300.858 47.582 301.2C47.5918 301.537 47.5967 301.881 47.5967 302.232V309H46.4395V298.292H48.2852L51.6763 307.198H51.7275L55.1699 298.292H57.001V309H55.7705V302.145C55.7705 301.827 55.7754 301.51 55.7852 301.192C55.7949 300.87 55.8071 300.567 55.8218 300.284C55.8364 299.996 55.8511 299.747 55.8657 299.537H55.8071L52.167 309H51.1489ZM66.6689 304.972C66.6689 305.631 66.5835 306.219 66.4126 306.737C66.2417 307.254 65.9951 307.691 65.6729 308.048C65.3506 308.404 64.96 308.678 64.501 308.868C64.0469 309.054 63.5317 309.146 62.9556 309.146C62.4185 309.146 61.9253 309.054 61.4761 308.868C61.0317 308.678 60.646 308.404 60.3188 308.048C59.9966 307.691 59.7451 307.254 59.5645 306.737C59.3887 306.219 59.3008 305.631 59.3008 304.972C59.3008 304.093 59.4497 303.346 59.7476 302.73C60.0454 302.11 60.4702 301.639 61.022 301.317C61.5786 300.99 62.2402 300.826 63.0068 300.826C63.7393 300.826 64.3789 300.99 64.9258 301.317C65.4775 301.644 65.9048 302.118 66.2075 302.738C66.5151 303.353 66.6689 304.098 66.6689 304.972ZM60.5605 304.972C60.5605 305.616 60.646 306.175 60.8169 306.649C60.9878 307.123 61.2515 307.489 61.6079 307.748C61.9644 308.006 62.4233 308.136 62.9849 308.136C63.5415 308.136 63.998 308.006 64.3545 307.748C64.7158 307.489 64.9819 307.123 65.1528 306.649C65.3237 306.175 65.4092 305.616 65.4092 304.972C65.4092 304.332 65.3237 303.78 65.1528 303.316C64.9819 302.848 64.7183 302.486 64.3618 302.232C64.0054 301.979 63.5439 301.852 62.9775 301.852C62.1426 301.852 61.5298 302.127 61.1392 302.679C60.7534 303.231 60.5605 303.995 60.5605 304.972ZM72.4185 300.826C72.5796 300.826 72.748 300.836 72.9238 300.855C73.0996 300.87 73.2559 300.892 73.3926 300.921L73.2388 302.049C73.1069 302.015 72.9604 301.988 72.7993 301.969C72.6382 301.949 72.4868 301.939 72.3452 301.939C72.0229 301.939 71.7178 302.005 71.4297 302.137C71.1465 302.264 70.8975 302.45 70.6826 302.694C70.4678 302.933 70.2993 303.224 70.1772 303.565C70.0552 303.902 69.9941 304.278 69.9941 304.693V309H68.771V300.973H69.7817L69.9136 302.452H69.9648C70.1309 302.154 70.3311 301.883 70.5654 301.639C70.7998 301.39 71.0708 301.192 71.3784 301.046C71.6909 300.899 72.0376 300.826 72.4185 300.826ZM77.9995 300.826C78.6831 300.826 79.269 300.978 79.7573 301.28C80.2456 301.583 80.6191 302.008 80.8779 302.555C81.1367 303.097 81.2661 303.731 81.2661 304.459V305.213H75.7217C75.7363 306.156 75.9707 306.874 76.4248 307.367C76.8789 307.86 77.5186 308.106 78.3438 308.106C78.8516 308.106 79.3008 308.06 79.6914 307.967C80.082 307.875 80.4873 307.738 80.9072 307.557V308.626C80.502 308.807 80.0991 308.939 79.6987 309.022C79.3032 309.105 78.8345 309.146 78.2925 309.146C77.521 309.146 76.8472 308.99 76.271 308.678C75.6997 308.36 75.2554 307.896 74.938 307.286C74.6206 306.676 74.4619 305.929 74.4619 305.045C74.4619 304.181 74.606 303.434 74.894 302.804C75.187 302.169 75.5972 301.681 76.1245 301.339C76.6567 300.997 77.2817 300.826 77.9995 300.826ZM77.9849 301.822C77.3354 301.822 76.8179 302.035 76.4321 302.459C76.0464 302.884 75.8169 303.478 75.7437 304.239H79.9917C79.9868 303.761 79.9111 303.341 79.7646 302.979C79.623 302.613 79.4058 302.33 79.1128 302.13C78.8198 301.925 78.4438 301.822 77.9849 301.822Z" fill="white"/>
<path d="M16 309.916H82.0498V310.282H16V309.916Z" fill="white"/>
<path d="M409.585 286.625H405.279V293H403.587V286.625H390.906V285.258L403.467 267.878H405.279V285.036H409.585V286.625ZM403.587 285.036V275.432C403.587 274.725 403.587 274.116 403.587 273.603C403.598 273.09 403.61 272.629 403.621 272.219C403.632 271.797 403.644 271.393 403.655 271.005C403.667 270.618 403.678 270.219 403.689 269.809H403.587C403.268 270.356 402.966 270.863 402.681 271.33C402.408 271.786 402.055 272.304 401.622 272.885L392.803 285.036H403.587ZM421.583 268.015L412.251 293H410.491L419.839 268.015H421.583ZM439.578 293H423.941V291.53L431.29 283.874C432.463 282.655 433.449 281.556 434.246 280.576C435.055 279.584 435.665 278.593 436.075 277.602C436.496 276.611 436.707 275.5 436.707 274.27C436.707 272.663 436.234 271.416 435.289 270.527C434.354 269.638 433.084 269.194 431.478 269.194C430.395 269.194 429.353 269.388 428.35 269.775C427.359 270.162 426.39 270.732 425.445 271.484L424.488 270.271C425.183 269.701 425.912 269.222 426.675 268.835C427.45 268.448 428.242 268.157 429.051 267.963C429.86 267.758 430.669 267.656 431.478 267.656C432.902 267.656 434.132 267.929 435.169 268.476C436.217 269.012 437.032 269.769 437.613 270.749C438.194 271.729 438.484 272.88 438.484 274.201C438.484 275.568 438.245 276.81 437.767 277.927C437.299 279.032 436.633 280.114 435.767 281.174C434.901 282.233 433.876 283.373 432.691 284.592L426.18 291.325V291.394H439.578V293ZM458.77 273.774C458.77 274.879 458.542 275.853 458.086 276.696C457.631 277.539 457.004 278.229 456.207 278.764C455.42 279.3 454.515 279.664 453.489 279.858V279.96C455.449 280.211 456.947 280.855 457.984 281.892C459.021 282.917 459.539 284.318 459.539 286.096C459.539 287.497 459.209 288.745 458.548 289.838C457.887 290.932 456.89 291.792 455.557 292.419C454.236 293.034 452.572 293.342 450.567 293.342C449.211 293.342 447.952 293.216 446.79 292.966C445.628 292.715 444.568 292.368 443.611 291.923V290.231C444.557 290.699 445.645 291.086 446.875 291.394C448.117 291.69 449.354 291.838 450.584 291.838C452.999 291.838 454.794 291.319 455.967 290.283C457.141 289.235 457.728 287.833 457.728 286.079C457.728 284.803 457.414 283.783 456.788 283.02C456.161 282.245 455.278 281.681 454.139 281.328C453.011 280.974 451.683 280.798 450.157 280.798H447.422V279.277H450.174C451.461 279.277 452.618 279.077 453.643 278.679C454.668 278.269 455.477 277.665 456.07 276.867C456.674 276.058 456.976 275.056 456.976 273.859C456.976 272.31 456.48 271.142 455.489 270.356C454.509 269.57 453.199 269.177 451.558 269.177C450.681 269.177 449.855 269.268 449.08 269.45C448.317 269.632 447.576 269.9 446.858 270.253C446.152 270.595 445.446 271.011 444.739 271.501L443.851 270.253C444.83 269.501 445.958 268.881 447.234 268.391C448.522 267.901 449.957 267.656 451.541 267.656C453.808 267.656 455.58 268.203 456.856 269.296C458.132 270.39 458.77 271.883 458.77 273.774Z" fill="white"/>
<rect y="27" width="479" height="311" rx="10" fill="white" fill-opacity="0.01"/>
<line x1="46.5596" y1="222.102" x2="99.5596" y2="196.102" stroke="#5FEEF9" stroke-width="2"/>
<line x1="123.915" y1="145.405" x2="100.915" y2="197.405" stroke="#5FEEF9" stroke-width="2"/>
<line x1="123.455" y1="144.11" x2="168.455" y2="167.11" stroke="#5FEEF9" stroke-width="2"/>
<line x1="226.765" y1="99.6435" x2="168.765" y2="168.643" stroke="#5FEEF9" stroke-width="2"/>
<line x1="226.428" y1="98.0963" x2="283.428" y2="125.096" stroke="#5FEEF9" stroke-width="2"/>
<line x1="313.9" y1="64.4356" x2="283.9" y2="126.436" stroke="#5FEEF9" stroke-width="2"/>
<line x1="313.92" y1="63.6073" x2="351.92" y2="152.607" stroke="#5FEEF9" stroke-width="2"/>
<line x1="401.192" y1="223.589" x2="350.192" y2="153.589" stroke="#5FEEF9" stroke-width="2"/>
</svg>
